<svg id="Capa_1" enable-background="new 0 0 512 512" height="8em" viewBox="0 0 512 512" width="512" xmlns="http://www.w3.org/2000/svg"><g><g fill="#65743A"><path d="m304.734 257.09-152.21 152.21 21.05-114.21 116.66-116.66z"/><path d="m274.514 93.14 15.72 85.29 14.5 78.66 21.708 117.785 47.604-39.086z"/></g><g><path d="m347.188 432.268-62.092-336.88 27.14-49.998c2.117-3.899 1.411-8.727-1.733-11.858l-30.758-30.62c-1.874-1.865-4.41-2.912-7.054-2.912h-60.073c-2.645 0-5.181 1.047-7.055 2.913l-30.758 30.62c-3.145 3.13-3.85 7.958-1.733 11.858l27.14 49.997-62.092 336.878c-.703 3.81.858 7.682 4.006 9.94l94.7 67.92c1.742 1.249 3.785 1.874 5.828 1.874s4.086-.625 5.828-1.874l94.7-67.92c3.147-2.257 4.708-6.129 4.006-9.938zm-128.069-329.128h47.069l1.037 5.627-60.248 60.249zm-2.373-83.14h51.815l22.527 22.426-22.101 40.712h-52.67l-22.1-40.712zm-16.16 183.691 71.041-71.042 34.288 186.032-126.01 126.009-20.967-15.038zm42.068 286.003-46.277-33.19 113.941-113.94 16.052 87.088z" fill="#e63946"/></g></g></svg>